<?xml version="1.0" encoding="iso-8859-1"?>
<!-- Generator: Adobe Illustrator 16.0.0, SVG Export Plug-In . SVG Version: 6.00 Build 0)  -->
<!DOCTYPE svg PUBLIC "-//W3C//DTD SVG 1.1//EN" "http://www.w3.org/Graphics/SVG/1.1/DTD/svg11.dtd">
<svg version="1.1" id="Capa_1" xmlns="http://www.w3.org/2000/svg" xmlns:xlink="http://www.w3.org/1999/xlink" x="0px" y="0px"
	 width="487.048px" height="487.048px" viewBox="0 0 487.048 487.048" style="enable-background:new 0 0 487.048 487.048;"
	 xml:space="preserve">

<g>
	<path style="fill:#ffffff;" d="M126.078,135.673c-13.148,68.735,8.769,112.56,19.527,124.514c10.758,11.953,25.503,28.285,13.942,59.363
		c-15.137,5.575-13.55,15.138-8.367,19.125c-1.597,7.966,6.77,11.16,11.16,9.562c1.989,4.781,15.137,7.966,21.917-5.977
		c1.989,6.771,47.019,49.209,131.886,37.256c-36.653,89.247-131.484,61.563-125.909,59.564c5.575-1.988,18.723-37.848-14.746-39.847
		c-32.675,2.792-36.223,64.671,10.356,79.483c67.645,21.516,114.281-0.421,146.42-45.422c41.836-58.57,31.231-94.354,28.486-100.607
		c1.598-6.77,21.516-31.871,4.38-118.335c-19.526-91.246-86.062-65.943-112.359-73.909c-26.296-7.965-23.112-71.126-21.715-76.098
		c1.396-4.982,7.573-38.843,1.797-39.044c-5.775-0.201-15.739,8.568-17.327,8.568c-1.597,0-8.167-5.183-8.167-5.183V0L196.2,19.526
		c-22.109-10.155-43.625,0.201-50.204,3.385c-6.579,3.185-12.546,0.794-16.333,1.195c-3.787,0.402-5.384,2.591-5.977,6.771
		c-4.379,2.391-5.977,7.765-6.378,18.331c-7.172,6.579,4.686,21.315,4.686,21.315S137.037,74.511,126.078,135.673z"/>
</g></svg>
